<svg width="24" height="24" viewBox="0 0 24 24" fill="none" xmlns="http://www.w3.org/2000/svg">
<path d="M3 17.25V21H6.75L17.81 9.93997L14.06 6.18997L3 17.25ZM20.71 7.03997C20.8027 6.94746 20.8762 6.83757 20.9264 6.7166C20.9766 6.59562 21.0024 6.46594 21.0024 6.33497C21.0024 6.204 20.9766 6.07432 20.9264 5.95335C20.8762 5.83237 20.8027 5.72249 20.71 5.62997L18.37 3.28997C18.2775 3.19727 18.1676 3.12372 18.0466 3.07354C17.9257 3.02336 17.796 2.99753 17.665 2.99753C17.534 2.99753 17.4043 3.02336 17.2834 3.07354C17.1624 3.12372 17.0525 3.19727 16.96 3.28997L15.13 5.11997L18.88 8.86997L20.71 7.03997Z" fill="white"/>
</svg>
