<svg width="37" height="37" viewBox="0 0 37 37" fill="none" xmlns="http://www.w3.org/2000/svg">
<g clip-path="url(#clip0_415_2065)">
<path d="M18.5 0.000976562C8.2838 0.000976562 0 8.28315 0 18.5002C0 28.7172 8.28299 36.9994 18.5 36.9994C28.7178 36.9994 37 28.7172 37 18.5002C37 8.28315 28.7178 0.000976562 18.5 0.000976562ZM18.5 5.53245C21.8805 5.53245 24.6198 8.27259 24.6198 11.6514C24.6198 15.0311 21.8805 17.7704 18.5 17.7704C15.1211 17.7704 12.3818 15.0311 12.3818 11.6514C12.3818 8.27259 15.1211 5.53245 18.5 5.53245ZM18.4959 32.1627C15.1244 32.1627 12.0365 30.9348 9.65468 28.9025C9.07447 28.4076 8.73968 27.6819 8.73968 26.9205C8.73968 23.4937 11.5131 20.7511 14.9407 20.7511H22.0609C25.4893 20.7511 28.2522 23.4937 28.2522 26.9205C28.2522 27.6827 27.919 28.4068 27.338 28.9016C24.957 30.9348 21.8683 32.1627 18.4959 32.1627Z" fill="#9FA0AB"/>
</g>
<defs>
<clipPath id="clip0_415_2065">
<rect width="37" height="37" fill="white"/>
</clipPath>
</defs>
</svg>
